<?xml version="1.0" standalone="no"?>
<!DOCTYPE svg PUBLIC "-//W3C//DTD SVG 20010904//EN"
 "http://www.w3.org/TR/2001/REC-SVG-20010904/DTD/svg10.dtd">
<svg version="1.0" xmlns="http://www.w3.org/2000/svg"
 width="300.000000pt" height="300.000000pt" viewBox="0 0 300.000000 300.000000"
 preserveAspectRatio="xMidYMid meet">
<metadata>
Created by potrace 1.14, written by Peter Selinger 2001-2017
</metadata>
<g transform="translate(0.000000,300.000000) scale(0.100000,-0.100000)"
fill="#000000" stroke="none">
<path d="M386 2983 c-159 -33 -288 -147 -348 -310 -22 -58 -22 -64 -24 -893
-1 -459 0 -842 2 -850 4 -14 113 -16 1021 -15 l1017 0 32 -32 c72 -72 174 -93
260 -54 169 77 174 323 7 401 -91 42 -207 20 -267 -51 l-25 -29 -905 0 c-718
0 -906 3 -907 13 -5 94 1 1393 6 1418 18 82 96 158 177 173 13 3 595 5 1294 5
l1272 1 1 115 c0 84 -3 115 -12 116 -6 1 -581 2 -1276 2 -964 2 -1279 -1
-1325 -10z"/>
<path d="M670 2174 c-142 -62 -179 -259 -67 -364 90 -86 244 -80 321 11 l25
29 901 0 c496 0 904 -2 908 -4 4 -2 7 -323 6 -713 0 -649 -2 -711 -18 -748
-24 -55 -62 -93 -121 -121 l-50 -24 -1274 0 c-701 0 -1277 -3 -1280 -6 -3 -3
-6 -54 -7 -114 0 -91 2 -109 15 -112 28 -6 2545 -1 2581 5 97 17 191 69 263
146 61 65 86 117 107 225 17 85 19 154 18 897 l0 806 -1022 0 -1021 0 -41 39
c-63 62 -166 82 -244 48z"/>
</g>
</svg>
