<svg width="18" height="10" viewBox="0 0 18 10" fill="none" xmlns="http://www.w3.org/2000/svg">
<path opacity="0.87" d="M13.1707 0H9.65854V2H13.1707C14.6195 2 15.8049 3.35 15.8049 5C15.8049 6.65 14.6195 8 13.1707 8H9.65854V10H13.1707C15.5941 10 17.561 7.76 17.561 5C17.561 2.24 15.5941 0 13.1707 0ZM7.90244 8H4.39024C2.94146 8 1.7561 6.65 1.7561 5C1.7561 3.35 2.94146 2 4.39024 2H7.90244V0H4.39024C1.96683 0 0 2.24 0 5C0 7.76 1.96683 10 4.39024 10H7.90244V8ZM5.26829 4H12.2927V6H5.26829V4Z" fill="#650675"/>
</svg>
