<svg width="27" height="27" viewBox="0 0 27 27" fill="none" xmlns="http://www.w3.org/2000/svg">
<path d="M22.1864 1H4.81356C2.70739 1 1 2.70739 1 4.81356V22.1864C1 24.2926 2.70739 26 4.81356 26H22.1864C24.2926 26 26 24.2926 26 22.1864V4.81356C26 2.70739 24.2926 1 22.1864 1Z" stroke="#2B2A29" stroke-miterlimit="22.9256"/>
<path fill-rule="evenodd" clip-rule="evenodd" d="M7.77957 9.47479C7.77957 12.4409 9.47449 15.8307 10.7457 17.9494C11.5931 19.2206 12.4406 20.068 13.288 20.9155C14.1355 21.3392 16.2541 22.6104 17.5253 22.1867C17.5253 21.7629 15.4067 18.3731 15.4067 17.5256C14.5592 17.5256 14.5592 17.5256 13.7118 16.6782C12.8643 15.407 11.1694 12.8646 11.1694 11.1697C11.1694 10.746 11.5931 10.746 11.5931 10.3222L9.05076 6.08496C8.2033 6.50869 7.77957 8.2036 7.77957 9.47479Z" fill="#2B2A29"/>
<path fill-rule="evenodd" clip-rule="evenodd" d="M9.47452 5.66094C9.47452 6.08467 11.5932 10.322 12.0169 10.322C12.4406 10.322 13.7118 9.4745 13.2881 9.05077C13.2881 9.05077 13.2881 8.20331 12.8643 8.20331L12.0169 6.08467C11.1694 4.81348 11.1694 4.81348 9.47452 5.66094Z" fill="#2B2A29"/>
<path fill-rule="evenodd" clip-rule="evenodd" d="M15.8305 17.5252C15.8305 17.9489 17.9492 21.7625 17.9492 21.7625C17.9492 21.7625 19.6441 21.3388 19.6441 20.915C19.6441 20.4913 17.5255 17.1015 17.5255 17.1015C17.5255 16.6777 17.1017 16.6777 16.678 16.6777C16.2543 17.1015 15.8305 17.1015 15.8305 17.5252Z" fill="#2B2A29"/>
</svg>
